<?xml version="1.0" encoding="UTF-8"?>
<!DOCTYPE svg PUBLIC "-//W3C//DTD SVG 1.1//EN" "http://www.w3.org/Graphics/SVG/1.1/DTD/svg11.dtd">
<!-- Creator: CorelDRAW X7 -->
<svg xmlns="http://www.w3.org/2000/svg" xml:space="preserve" width="27.4999mm" height="6.2478mm" version="1.1" style="shape-rendering:geometricPrecision; text-rendering:geometricPrecision; image-rendering:optimizeQuality; fill-rule:evenodd; clip-rule:evenodd"
viewBox="0 0 49987 11357"
 xmlns:xlink="http://www.w3.org/1999/xlink">
 <defs>
  <style type="text/css">
   <![CDATA[
    .fil3 {fill:#FEFEFE;fill-rule:nonzero}
    .fil1 {fill:#2B2A29;fill-rule:nonzero}
    .fil5 {fill:#D4EDFC;fill-rule:nonzero}
    .fil4 {fill:#83D0F4;fill-rule:nonzero}
    .fil2 {fill:#338884;fill-rule:nonzero}
    .fil0 {fill:#263F67;fill-rule:nonzero}
   ]]>
  </style>
 </defs>
 <g id="Слой_x0020_1">
  <metadata id="CorelCorpID_0Corel-Layer"/>
  <g id="_340909923632">
   <path class="fil0" d="M4729 10927c-96,171 -270,263 -457,263 -296,0 -542,-238 -542,-549 0,-301 226,-542 542,-542 62,0 320,10 457,279l206 0c-106,-269 -347,-446 -663,-446 -475,0 -726,386 -726,711 0,356 262,714 726,714 373,0 569,-229 661,-430l-204 0zm649 -962l0 167 350 0 0 1192 184 0 0 -1192 350 0 0 -167 -884 0zm2028 -33c-402,0 -711,309 -711,714 0,405 311,711 711,711 400,0 711,-306 711,-711 0,-405 -308,-714 -711,-714zm0 167c306,0 527,238 527,547 0,308 -221,544 -527,544 -306,0 -527,-236 -527,-544 0,-309 221,-547 527,-547zm1268 -134l0 1359 183 0 0 -1155 475 1155 159 0 475 -1155 0 1155 184 0 0 -1359 -283 0 -455 1111 -455 -1111 -283 0zm3472 0l-175 0 0 236 -4 0c-165,-251 -417,-269 -534,-269 -488,0 -724,381 -724,704 0,423 321,721 729,721 295,0 452,-169 529,-286l4 0 0 253 175 0 0 -1359zm-713 134c307,0 538,246 538,554 0,299 -235,537 -533,537 -291,0 -545,-228 -545,-539 0,-316 244,-552 540,-552zm1197 -134l0 167 351 0 0 1192 183 0 0 -1192 351 0 0 -167 -885 0zm2028 -33c-402,0 -711,309 -711,714 0,405 311,711 711,711 400,0 711,-306 711,-711 0,-405 -308,-714 -711,-714zm0 167c306,0 527,238 527,547 0,308 -221,544 -527,544 -306,0 -527,-236 -527,-544 0,-309 221,-547 527,-547zm1904 -134l-191 0 -582 1359 199 0 477 -1125 477 1125 199 0 -579 -1359zm1713 -33c-402,0 -711,309 -711,714 0,405 311,711 711,711 400,0 711,-306 711,-711 0,-405 -308,-714 -711,-714zm0 167c306,0 527,238 527,547 0,308 -221,544 -527,544 -306,0 -527,-236 -527,-544 0,-309 221,-547 527,-547zm1267 -134l0 1359 184 0 0 -1192 525 0 0 -167 -709 0zm1193 0l0 1359 184 0 810 -1098 0 1098 184 0 0 -1359 -184 0 -810 1099 0 -1099 -184 0zm2769 0l-184 0 0 681 -350 0c-62,0 -154,2 -219,-57 -67,-62 -69,-157 -69,-239l0 -385 -185 0 0 385c0,130 6,241 93,340 102,115 239,122 380,122l350 0 0 512 184 0 0 -1359zm1966 746c2,-351 -184,-779 -698,-779 -463,0 -709,379 -709,714 0,407 309,711 709,711 308,0 556,-182 666,-475l-192 0c-84,187 -261,308 -474,308 -286,0 -495,-209 -517,-479l1215 0zm-1215 -167c44,-259 256,-445 517,-445 236,0 447,169 499,445l-1016 0zm2905 383c-97,171 -271,263 -458,263 -295,0 -541,-238 -541,-549 0,-301 226,-542 541,-542 62,0 321,10 458,279l206 0c-106,-269 -348,-446 -664,-446 -474,0 -725,386 -725,711 0,356 261,714 725,714 373,0 570,-229 662,-430l-204 0zm959 397l0 -1359 -184 0 0 1359 184 0zm654 0l236 0 -557 -703 522 -656 -216 0 -532 671 547 688zm2087 -1359l-174 0 0 236 -5 0c-164,-251 -417,-269 -534,-269 -487,0 -723,381 -723,704 0,423 320,721 728,721 296,0 452,-169 529,-286l5 0 0 253 174 0 0 -1359zm-713 134c308,0 539,246 539,554 0,299 -236,537 -534,537 -291,0 -544,-228 -544,-539 0,-316 243,-552 539,-552zm2303 -134l-548 0c-327,0 -503,216 -503,447 0,236 162,410 396,428l-371 484 211 0 453 -629 -186 0c-229,0 -319,-121 -319,-273 0,-288 278,-290 319,-290l365 0 0 1192 183 0 0 -1359zm1953 1359l0 -1359 -183 0 0 1359 183 0zm654 0l236 0 -556 -703 522 -656 -217 0 -531 671 546 688zm1464 -1359l-191 0 -582 1359 199 0 478 -1125 477 1125 198 0 -579 -1359zm1179 0l0 1359 184 0 810 -1098 0 1098 184 0 0 -1359 -184 0 -810 1099 0 -1099 -184 0zm1914 0l0 1359 184 0 0 -613 760 0 0 613 184 0 0 -1359 -184 0 0 579 -760 0 0 -579 -184 0zm1863 0l0 1359 184 0 810 -1098 0 1098 184 0 0 -1359 -184 0 -810 1099 0 -1099 -184 0zm2098 1359l0 -1359 -184 0 0 1359 184 0zm654 0l236 0 -557 -703 522 -656 -216 0 -532 671 547 688zm2212 -1359l-174 0 0 236 -5 0c-164,-251 -417,-269 -534,-269 -488,0 -724,381 -724,704 0,423 321,721 729,721 295,0 452,-169 529,-286l5 0 0 253 174 0 0 -1359zm-713 134c308,0 539,246 539,554 0,299 -236,537 -534,537 -291,0 -545,-228 -545,-539 0,-316 244,-552 540,-552z"/>
   <g>
    <g>
     <path class="fil0" d="M12384 3283c-449,-925 -1353,-1459 -2466,-1459 -1547,0 -2777,1164 -2777,2754 0,1634 1250,2784 2820,2784 1050,0 1945,-558 2443,-1491l-635 0c-434,695 -1156,1005 -1808,1005 -1273,0 -2285,-982 -2285,-2298 0,-1223 904,-2271 2248,-2271 1150,0 1679,752 1822,976l638 0z"/>
     <g>
      <path class="fil0" d="M13988 7267l534 0 0 -4862 1221 0 0 -486 -2976 0 0 486 1221 0 0 4862zm2486 -5348l0 5348 563 0 3179 -4588 0 4588 536 0 0 -5348 -565 0 -3179 4590 0 -4590 -534 0zm7747 0l-506 0 -2218 5348 586 0 1884 -4674 1872 4674 586 0 -2204 -5348zm2947 0l0 5348 1763 0c1012,0 1698,-635 1698,-1569 0,-952 -614,-1567 -1698,-1567l-1229 0 0 -2212 -534 0zm534 2696l1235 0c932,0 1158,671 1158,1083 0,414 -226,1086 -1158,1086l-1235 0 0 -2169z"/>
      <path class="fil1" d="M30911 5706l42 -40c3,-37 26,-80 69,-128 43,-49 105,-106 182,-172 49,-37 103,-71 157,-105 54,-31 106,-69 154,-106 205,-176 405,-348 599,-510 111,-100 225,-183 336,-254 112,-71 214,-128 311,-171 71,-88 200,-177 388,-271 188,-91 342,-137 459,-137 46,0 83,15 111,40 26,26 43,60 52,100l0 268c0,94 -26,180 -80,254 -54,74 -137,143 -245,205 -72,32 -146,69 -217,106 -71,40 -146,77 -217,108 -26,34 -97,97 -208,186 -111,88 -265,211 -459,362 -89,68 -163,128 -223,182 -59,54 -99,100 -122,131 -32,63 -57,131 -74,206 -20,77 -29,162 -29,262 0,74 12,137 34,191 23,54 57,100 103,131 34,23 80,46 137,69 57,22 128,45 214,68 48,-20 114,-37 194,-57 79,-17 168,-40 268,-68 111,-66 225,-137 342,-209 117,-71 231,-145 345,-219 14,-9 34,-20 60,-32 26,-11 51,-28 77,-51 31,-43 77,-94 137,-148 57,-54 125,-120 208,-191 131,285 197,436 197,450 -123,100 -246,200 -368,303 -126,102 -268,188 -431,253 -51,43 -94,80 -131,117 -162,163 -353,288 -570,371 -220,83 -468,126 -747,126 -60,0 -117,-6 -166,-15 -48,-8 -91,-23 -122,-40 -100,-65 -183,-122 -251,-171 -72,-54 -134,-102 -183,-151 -48,-48 -85,-91 -108,-134 -29,-45 -49,-103 -60,-168 -11,-66 -17,-146 -17,-240 0,-25 8,-68 23,-128 17,-60 25,-100 25,-123 -22,-71 -51,-145 -85,-222 -32,-74 -69,-151 -111,-228zm3049 0c40,-69 91,-140 151,-211 63,-71 143,-143 237,-217 8,-66 20,-131 31,-197 9,-62 14,-125 17,-191 9,-45 26,-100 49,-162 20,-63 45,-131 71,-203 28,-71 68,-162 120,-271 51,-105 117,-228 199,-362 69,-77 140,-160 217,-248 74,-88 148,-179 225,-274 37,-28 74,-57 117,-82 43,-26 86,-57 128,-89 38,-14 83,-25 132,-34 48,-9 102,-14 162,-14 83,0 149,8 200,23 51,17 94,45 125,85 23,26 46,66 66,117 20,54 43,117 63,191 8,66 20,140 34,217 0,-20 -6,-12 -17,26 -12,37 -29,94 -52,171l-45 156c-46,157 -148,340 -308,545 -163,208 -379,442 -650,707 -23,23 -43,52 -57,86 -18,37 -26,74 -26,111 0,71 11,131 37,183 26,54 60,91 106,116 25,20 68,40 125,60 57,20 125,37 203,55 128,-9 245,-32 350,-66 106,-31 197,-71 280,-117 14,-8 40,-23 77,-43 37,-17 71,-40 108,-68 43,94 83,179 114,254 31,77 57,142 77,196 -185,186 -356,323 -507,417 -152,94 -291,139 -420,139 -54,32 -114,58 -179,72 -66,14 -146,23 -240,23 -120,0 -225,-18 -319,-55 -94,-37 -174,-88 -234,-159 -34,-32 -68,-80 -100,-146 -31,-62 -65,-137 -102,-225 -29,-71 -58,-126 -83,-163 -26,-34 -57,-51 -89,-51 -25,0 -57,12 -88,37 -31,26 -68,63 -108,111 -15,-48 -37,-111 -69,-182 -31,-71 -74,-160 -128,-268zm1571 -1597c-71,0 -168,94 -288,282 -123,188 -182,325 -182,414 0,20 3,34 11,42 9,9 26,12 51,12 37,0 66,-20 89,-57 23,-37 45,-71 65,-103 37,-34 72,-71 106,-108 34,-37 68,-71 100,-109 39,-45 68,-91 88,-139 20,-46 29,-92 29,-137 0,-29 -6,-51 -18,-71 -11,-18 -28,-26 -51,-26zm848 1597c66,-86 148,-188 254,-308 102,-120 228,-257 373,-411 12,-28 26,-62 43,-105 14,-40 40,-92 71,-154 174,-260 328,-508 468,-747 137,-240 254,-474 354,-699 28,-54 59,-126 94,-208 34,-83 77,-177 131,-283 46,-76 91,-139 137,-182 43,-43 85,-63 128,-63 66,0 114,29 146,83 31,57 45,145 45,262 0,66 -57,277 -168,633 -114,360 -282,864 -505,1517 -60,157 -125,380 -196,662 -72,282 -157,636 -251,1058 -9,63 -20,134 -32,217 -11,82 -28,176 -51,285 -54,208 -94,376 -117,502 -23,122 -34,202 -32,239l20 40c18,-11 38,-43 58,-94 20,-54 40,-128 57,-225 20,-89 34,-166 45,-225 9,-60 12,-112 3,-149 71,-191 157,-433 257,-730 97,-296 211,-641 342,-1035 54,-94 114,-211 182,-348 66,-134 137,-296 211,-482 77,-71 146,-125 206,-159 60,-35 111,-52 154,-52 91,0 176,26 256,74 77,49 149,123 214,217 17,23 49,80 91,174 43,94 103,220 180,379 43,100 86,174 134,228 46,55 89,86 131,89l206 450c-15,3 -57,15 -129,35 -71,20 -171,42 -302,65l-334 -122c-82,-26 -179,-106 -296,-243 -117,-137 -214,-216 -285,-239 -69,48 -143,145 -220,288 -77,145 -160,330 -242,561 -20,52 -43,109 -74,169 -32,60 -66,131 -97,208 -20,125 -43,245 -69,359 -43,100 -88,225 -137,376 -48,152 -102,334 -157,542 -17,72 -59,180 -125,325 -66,146 -106,254 -120,328 -8,46 -22,106 -42,183 -20,77 -55,165 -98,265 -74,131 -142,231 -205,299 -62,66 -114,100 -157,100 -99,0 -171,-48 -219,-142 -49,-95 -74,-237 -74,-422 0,-283 17,-594 48,-930 31,-336 80,-699 146,-1086 20,-112 42,-223 65,-340 23,-114 46,-231 69,-348 28,-137 48,-262 62,-379 12,-114 15,-217 6,-308 -31,9 -86,51 -162,126 -77,74 -177,185 -294,330 -15,-48 -37,-111 -69,-182 -31,-71 -74,-160 -128,-268zm3383 0c40,-46 88,-103 143,-168 54,-66 125,-143 211,-237 31,-91 62,-205 91,-342 28,-134 51,-294 71,-477 23,-185 49,-350 77,-490 26,-140 51,-251 74,-336 149,-462 263,-819 345,-1073 83,-253 129,-402 143,-450 108,-297 222,-562 342,-799 117,-233 237,-436 359,-610 32,-31 63,-68 95,-105 31,-38 68,-77 111,-120 122,-57 234,-111 339,-163 60,-25 120,-48 180,-65 60,-15 119,-23 179,-23 92,0 163,43 211,128 49,89 75,220 75,394 0,105 -15,225 -43,359 -32,134 -72,280 -126,436 -77,223 -137,400 -179,531 -43,134 -72,216 -80,248 -15,71 -43,157 -92,262 -48,106 -117,231 -199,382 -100,194 -180,342 -237,448 -57,105 -91,165 -100,185 -22,23 -45,46 -71,72 -26,25 -51,51 -77,77l0 114c-17,37 -34,65 -48,82 -57,109 -132,243 -226,403 -94,162 -208,345 -345,550 -77,108 -137,202 -176,285 -40,83 -60,151 -60,211l0 433c17,83 37,169 57,251 20,83 37,166 57,246 14,105 45,182 94,236 45,54 97,83 157,83 131,0 239,-31 327,-97 86,-66 149,-162 192,-294 -89,-34 -154,-74 -203,-122 -48,-49 -71,-97 -71,-151 14,-32 28,-69 40,-109 11,-40 23,-80 37,-122 3,-23 11,-46 20,-69 8,-23 11,-51 14,-88 151,-277 291,-482 416,-622 123,-140 234,-208 331,-208 23,0 60,3 114,11 52,9 92,12 117,12 20,0 51,-6 94,-17 43,-12 74,-17 94,-17 54,0 94,19 117,56 23,38 35,89 35,155 0,142 -40,296 -123,459 -83,162 -123,256 -123,279 0,20 14,40 40,63 20,-6 40,-14 60,-29 20,-14 43,-28 63,-48 14,43 34,91 63,145 25,57 57,123 88,194 17,23 28,43 37,60 6,20 8,37 8,51 -139,140 -259,249 -365,323 -105,77 -193,117 -265,125 -22,0 -51,0 -82,-3 -32,-3 -72,-5 -117,-8 -49,57 -103,122 -166,194 -65,71 -137,156 -213,253 -32,23 -75,55 -123,92 -49,37 -106,85 -168,139 -94,94 -189,166 -283,211 -94,43 -188,66 -282,66 -43,0 -83,-6 -123,-17 -42,-12 -88,-34 -142,-69 -37,-20 -80,-45 -123,-80 -45,-34 -94,-74 -148,-119 -66,-200 -111,-385 -140,-556 -31,-169 -45,-331 -45,-485 0,-26 -3,-49 -6,-68 -6,-18 -14,-32 -23,-46l-46 -14 -34 14 -48 48c-26,-71 -57,-145 -89,-222 -31,-74 -68,-151 -108,-228zm2276 -3995c0,-15 -3,-29 -9,-40 -6,-12 -14,-23 -29,-34 -20,-3 -40,20 -65,68 -26,49 -51,114 -74,203 -15,65 -43,142 -89,231 -48,88 -108,193 -179,313 -60,106 -120,223 -180,351 -60,131 -117,271 -177,422 -77,177 -131,331 -168,465 -37,134 -54,242 -54,325l11 45c26,-14 69,-76 129,-193 59,-115 139,-280 239,-497 91,-188 160,-336 205,-444 43,-109 72,-180 80,-217 26,-89 57,-194 94,-311 34,-117 74,-248 123,-391 31,-57 60,-105 83,-142 20,-26 34,-54 45,-80 9,-26 15,-51 15,-74zm611 3995c14,-9 23,-20 31,-34 9,-15 12,-32 12,-52 57,-45 119,-108 191,-188 71,-80 148,-174 236,-282 71,-100 149,-197 226,-297 77,-97 159,-194 248,-293 71,-98 142,-200 214,-306 71,-105 145,-211 222,-313 131,-60 234,-106 305,-131 71,-26 120,-40 145,-40 49,0 89,14 115,45 25,32 39,77 39,137 0,20 -5,46 -14,83 -8,37 -20,74 -34,117 -23,65 -48,134 -80,202 -26,114 -57,228 -94,342 -37,117 -71,229 -103,340 -31,139 -57,271 -74,388 -20,119 -28,228 -28,325 0,185 8,319 28,407 17,89 43,129 74,117 32,-20 75,-42 123,-71 48,-26 108,-57 174,-94 60,-63 125,-140 200,-231 71,-91 159,-200 265,-325 60,-91 119,-180 182,-268 23,-26 52,-57 83,-94 31,-37 60,-72 85,-109 60,-156 132,-276 209,-353 77,-77 162,-114 256,-114 86,0 154,11 206,31 48,23 85,54 105,97 9,23 17,63 26,117 6,57 8,131 8,222 0,37 9,89 23,157 14,69 20,120 20,151 0,123 23,214 66,274 42,60 108,91 196,91 26,0 55,-5 92,-14 37,-9 71,-20 108,-34l197 450c-197,117 -357,209 -482,268 -128,60 -222,92 -285,92 -163,0 -297,-43 -402,-129 -106,-85 -183,-211 -231,-379 -6,-37 -20,-77 -40,-117 -23,-40 -52,-80 -83,-117 -29,32 -63,72 -100,117 -37,46 -77,91 -120,137 -88,108 -176,214 -265,317 -88,105 -179,208 -271,307 -116,135 -231,231 -348,291 -116,60 -225,92 -325,92 -151,0 -270,-46 -362,-134 -94,-89 -154,-223 -179,-400 -29,-171 -49,-305 -57,-399 -12,-94 -15,-151 -6,-171 -9,-94 -17,-168 -29,-217 -11,-48 -28,-74 -51,-74l-28 15 -280 290c-9,23 -26,52 -48,86 -23,34 -55,77 -95,125 -14,-48 -37,-111 -68,-182 -31,-71 -74,-160 -128,-268zm4036 0l43 -40c2,-37 25,-80 68,-128 43,-49 106,-106 182,-172 49,-37 103,-71 157,-105 54,-31 106,-69 154,-106 206,-176 405,-348 599,-510 111,-100 225,-183 337,-254 111,-71 213,-128 310,-171 72,-88 200,-177 388,-271 189,-91 342,-137 459,-137 46,0 83,15 112,40 25,26 42,60 51,100l0 268c0,94 -26,180 -80,254 -54,74 -137,143 -245,205 -71,32 -146,69 -217,106 -71,40 -145,77 -217,108 -25,34 -97,97 -208,186 -111,88 -265,211 -459,362 -88,68 -162,128 -222,182 -60,54 -100,100 -123,131 -31,63 -57,131 -74,206 -20,77 -29,162 -29,262 0,74 12,137 35,191 22,54 57,100 102,131 35,23 80,46 137,69 57,22 128,45 214,68 49,-20 114,-37 194,-57 80,-17 168,-40 268,-68 111,-66 225,-137 342,-209 117,-71 231,-145 345,-219 14,-9 34,-20 60,-32 26,-11 51,-28 77,-51 32,-43 77,-94 137,-148 57,-54 125,-120 208,-191 131,285 197,436 197,450 -123,100 -245,200 -368,303 -125,102 -268,188 -431,253 -51,43 -94,80 -131,117 -162,163 -353,288 -570,371 -220,83 -468,126 -747,126 -60,0 -117,-6 -166,-15 -48,-8 -91,-23 -122,-40 -100,-65 -183,-122 -251,-171 -71,-54 -134,-102 -183,-151 -48,-48 -85,-91 -108,-134 -28,-45 -48,-103 -60,-168 -11,-66 -17,-146 -17,-240 0,-25 9,-68 23,-128 17,-60 26,-100 26,-123 -23,-71 -52,-145 -86,-222 -31,-74 -68,-151 -111,-228z"/>
     </g>
    </g>
    <path class="fil1" d="M1942 3118c0,0 -894,-825 193,-903 147,-10 676,-121 676,-121 0,0 -92,-605 -62,-865 47,-398 474,-804 913,-976 350,-138 512,-168 760,-210 1788,-308 1658,1156 1941,972 1424,-924 1630,-426 1247,272 -115,210 -232,322 -378,492 -174,204 -169,133 -458,427 -330,334 -2728,1178 -3065,1299 -338,121 -487,141 -773,95 -606,-98 -994,-482 -994,-482z"/>
    <path class="fil0" d="M2128 3076c0,0 -683,-579 319,-663 777,-65 1549,-108 2304,-340 754,-233 1827,-760 2136,-947 538,-327 584,-27 465,286 -64,166 -88,297 -315,541 -175,188 166,-25 -213,258 -380,284 -2636,1167 -2964,1289 -327,122 -455,48 -723,11 -693,-97 -1009,-435 -1009,-435z"/>
    <path class="fil2" d="M3063 2050c-117,-433 -81,-732 -35,-905 94,-359 320,-508 583,-668 201,-122 558,-283 1082,-312 1304,-73 1154,641 1542,912 -141,120 -943,458 -3172,973z"/>
    <path class="fil3" d="M7294 5017c-46,389 -532,1837 -635,2091 -105,254 -278,393 -440,381 -161,-11 -184,-393 -196,-508 -11,-116 0,-531 -81,-554 -82,-24 -346,750 -462,958 -115,208 -242,336 -427,404 -185,68 -312,-208 -335,-323 -23,-117 -35,-554 -46,-728 -12,-173 -409,-1109 -508,-1282 -100,-173 -855,-1617 -895,-1813 -40,-197 -108,-613 40,-948 71,-161 233,-347 473,-450 204,-88 687,-59 1069,52 143,-72 493,-200 677,-320 259,-170 426,-356 703,-344 277,11 485,196 555,242 69,47 450,1005 548,1594 98,590 6,1160 -40,1548z"/>
    <path class="fil4" d="M4749 1845c950,-214 1646,-558 2069,-787 598,-325 745,-289 785,-70 -4,166 -133,456 -181,570 210,-219 367,-561 372,-768 39,-476 -794,-52 -1277,226 -305,206 -734,449 -1704,719 -788,234 -853,238 -1447,388 594,-106 617,-46 1383,-278z"/>
    <path class="fil4" d="M4486 265c264,-164 937,-163 1228,95 291,258 413,624 413,624 0,0 -395,-265 -943,-413 -393,-106 -917,-171 -698,-306z"/>
    <path class="fil1" d="M5101 3891c108,-343 24,-676 -189,-743 -212,-67 -472,157 -580,501 -109,343 -24,676 188,743 213,67 473,-157 581,-501z"/>
    <path class="fil3" d="M5117 3899c82,-260 -3,-518 -189,-577 -187,-58 -405,104 -486,363 -82,260 3,518 190,577 186,59 404,-104 485,-363z"/>
    <path class="fil2" d="M5134 3899c48,-155 -13,-311 -137,-351 -123,-39 -263,55 -312,210 -49,154 12,311 136,350 124,39 264,-55 313,-209z"/>
    <path class="fil1" d="M5084 3894c24,-75 -7,-151 -68,-170 -62,-20 -131,25 -154,100 -24,75 7,152 68,171 62,20 131,-25 154,-101z"/>
    <path class="fil5" d="M5594 2624l-655 -183 -960 -122 -655 411 -76 762 320 823 1200 2697 0 503c0,0 5,321 308,285 304,-36 798,-1521 798,-1521 0,0 -391,738 -391,646 0,-45 -505,-932 -520,-986 -54,-196 -125,-325 -192,-379 -150,-124 -382,-280 -382,-280l-425 -1285c0,0 -267,-611 -122,-969 76,-189 226,-522 578,-448 946,201 1174,46 1174,46z"/>
    <path class="fil5" d="M7270 5245l-405 1325 -278 701c0,0 -173,320 -324,259 -151,-60 -379,-1249 -379,-1249 0,0 193,-288 379,-61 213,259 23,884 23,884 0,0 8,213 187,-46 466,-675 592,-2011 592,-2011 0,0 -367,-96 -81,-877 11,-31 93,-50 97,-80 30,-260 48,-590 48,-590 0,0 22,-1128 -479,-1451 -395,-254 -728,217 -1092,230 -403,16 -649,-9 -649,-9l1077 -638 704 113c0,0 242,456 401,774 158,319 287,1458 287,1458l-108 1268z"/>
    <path class="fil1" d="M5096 2346c-399,-206 -1146,-206 -1417,-89 -252,108 -521,217 -596,387 -155,350 -174,844 -132,1049 42,206 1023,1664 1127,1846 104,181 400,1246 412,1428 12,181 43,582 67,704 24,121 259,382 452,310 194,-71 327,-205 448,-423 120,-218 397,-1028 483,-1004 85,25 73,460 85,581 12,121 36,520 205,532 170,12 351,-133 460,-399 109,-266 617,-1782 665,-2189 49,-407 191,-1008 88,-1624 -103,-617 -436,-1628 -508,-1676 -73,-49 -402,-231 -692,-243 -291,-12 -460,194 -750,339 -290,145 -692,437 -584,401 178,-59 515,-207 515,-207 0,0 407,-255 444,-267 36,-12 495,-157 665,0 169,157 326,370 459,641 214,437 300,1115 324,1393 24,278 -203,1872 -312,2211 -109,338 -411,1136 -520,1281 -108,146 -203,133 -227,60 -24,-72 -89,-434 -109,-544 -48,-266 0,-580 -145,-629 -145,-48 -181,242 -280,436 -53,103 -306,641 -375,726 -70,84 -254,387 -375,266 -121,-121 -191,-181 -182,-399 13,-290 -84,-544 -145,-762 -60,-218 -943,-2056 -1003,-2104 -61,-49 -278,-653 -327,-859 -48,-205 111,-726 220,-835 109,-108 339,-278 544,-278 206,0 724,-11 893,49 169,61 474,181 582,157 109,-24 355,-302 355,-302 0,0 -415,242 -814,36z"/>
    <path class="fil1" d="M4592 4711c0,0 844,585 1484,320 463,-192 678,-542 678,-542 0,0 -305,722 -813,1166 -429,374 -1349,-944 -1349,-944z"/>
    <path class="fil1" d="M6267 3695c152,245 402,340 559,211 157,-128 161,-432 9,-678 -152,-245 -402,-341 -559,-212 -156,129 -160,433 -9,679z"/>
    <path class="fil3" d="M6383 3656c132,214 345,301 476,193 131,-107 130,-368 -1,-582 -132,-214 -345,-300 -476,-193 -131,108 -131,368 1,582z"/>
    <path class="fil1" d="M4285 3441l240 -508 278 -43 -91 -111c0,0 -116,28 -269,51 -152,23 -158,611 -158,611z"/>
    <path class="fil1" d="M6585 2795l-319 -170 -269 40c0,0 99,-119 245,-168 147,-49 343,298 343,298z"/>
    <path class="fil1" d="M6838 2959l-253 -228c0,0 -127,-102 27,-130 153,-29 226,358 226,358z"/>
    <path class="fil3" d="M4963 6615l375 458c0,0 -74,235 -180,282 -59,25 -195,-740 -195,-740z"/>
    <path class="fil1" d="M104 5052c0,0 709,228 1083,315 347,82 566,159 736,136 171,-24 463,-175 463,-175l1475 459 1494 1250 161 -296 -1374 -1369 -1779 -471 -349 62 75 -227 228 -82c0,0 107,-132 181,-232 73,-101 45,-305 45,-305 0,0 -121,116 -219,129 -98,13 -1262,-662 -1423,-653 -161,10 -480,64 -601,181 -121,116 -300,354 -300,354 0,0 403,-31 495,7 92,37 0,360 0,360l-242 56c0,0 -182,199 -190,238 -11,62 41,263 41,263z"/>
    <path class="fil3" d="M3359 5628c0,0 -297,-312 -480,-287 -184,25 -462,5 -465,80 -2,74 -194,227 -107,276 88,49 410,72 1006,305 47,19 -12,-104 76,-190 88,-87 -30,-184 -30,-184z"/>
    <path class="fil1" d="M3359 5627c0,0 -279,-306 -462,-333 -277,-40 -489,86 -545,136 -77,71 -245,309 -157,358 45,25 339,63 655,137 254,59 460,129 485,132 28,3 -147,-173 -408,-254 -196,-60 -455,-132 -489,-145 -72,-29 -41,-92 57,-167 120,-92 421,-95 421,-95l443 231z"/>
    <path class="fil1" d="M3806 5083c0,0 -421,387 -478,497 -132,254 -242,413 -233,503 8,78 89,226 210,288 120,62 347,-59 347,-59 0,0 0,66 103,114 106,51 216,-17 236,-57 15,-30 29,61 85,108 56,47 103,21 149,15 46,-6 142,-108 186,-150 121,-116 318,-446 301,-573 -17,-126 -81,-230 -142,-221 -62,8 -67,-215 -119,-233 -52,-18 -204,-35 -204,-35 0,0 34,-153 -93,-219 -126,-68 -348,22 -348,22z"/>
    <path class="fil3" d="M3848 5197c0,0 -365,347 -416,439 -51,92 -115,254 -119,372 -2,76 -8,97 95,150 57,30 156,47 208,18 116,-66 117,-91 117,-91 0,0 -46,110 -41,122 8,20 28,52 82,77 91,43 184,-14 201,-48 13,-26 97,-66 82,-5 -19,77 124,137 163,132 39,-5 95,-52 132,-88 103,-99 257,-399 242,-506 -15,-108 -102,-234 -116,-184 -31,108 -229,253 -238,232 -4,-9 188,-264 192,-275 37,-130 -37,-193 -66,-203 -29,-10 -103,-9 -133,20 -16,15 -347,382 -347,382 0,0 279,-488 280,-502 3,-40 28,-74 -52,-116 -107,-57 -266,74 -266,74z"/>
    <path class="fil3" d="M416 3975c0,0 121,-206 358,-214 236,-7 412,47 542,126 87,53 670,349 670,349 0,0 237,115 315,80 78,-35 167,-59 167,-59 0,0 -94,199 -195,238 -102,38 -318,104 -421,45 -103,-59 -1023,-543 -1023,-543l-221 -55 -192 33z"/>
    <path class="fil5" d="M411 3974c0,0 76,-75 312,-83 236,-8 551,198 620,274 70,75 682,325 682,325 0,0 175,-25 254,-60 78,-35 178,-163 178,-163 0,0 -53,227 -154,265 -102,38 -318,104 -421,45 -103,-59 -1023,-543 -1023,-543l-202 -78 -246 18z"/>
    <path class="fil3" d="M635 4650l87 -547 8 335c0,0 81,-323 86,-286 5,37 -9,300 -9,300 0,0 74,-284 79,-247 5,37 -9,300 -9,300l61 -282 40 19 5 311 85 -286 84 64 -72 383 126 -353 82 51 -20 314 110 -289 57 55c0,0 -52,343 -28,340 24,-3 147,-294 147,-294l115 21 -118 328 189 -262 166 27 -170 309 262 -272 -170 397 -1193 -436z"/>
    <path class="fil4" d="M576 4584l-116 65 -93 138 134 -19 1371 462 375 -176 425 104 253 28 531 239c0,0 120,-128 96,-125 -25,3 -1188,-342 -1188,-342l-477 195 -1368 -437 57 -132z"/>
    <path class="fil0" d="M2770 5237l-507 -101 -379 182 -1418 -460 -170 -7 22 92c0,0 1424,466 1572,454 244,-21 418,-187 418,-187l367 67 95 -40z"/>
    <polygon class="fil0" points="4621,6201 4556,6272 5330,6951 5318,6852 "/>
    <polygon class="fil4" points="4708,6015 4660,6121 5355,6791 5405,6716 "/>
    <path class="fil5" d="M3840 5205c0,0 -365,347 -416,439 -51,91 -115,253 -118,372 -3,76 -8,97 94,150 57,29 156,47 208,18 116,-66 118,-91 118,-91 0,0 -47,110 -42,122 8,20 28,51 83,77 90,43 184,-15 201,-49 12,-25 96,-65 82,-5 -20,78 123,138 162,133 39,-6 95,-53 133,-88 103,-99 -219,79 -234,-28 -14,-108 55,-343 41,-293 -31,108 -265,417 -436,200 -31,-40 130,-210 119,-206 -75,31 -106,79 -215,62 -181,-28 -171,-158 -94,-286 11,-18 314,-527 314,-527z"/>
    <path class="fil5" d="M2904 5390c-38,12 -305,22 -398,87 -74,51 -200,159 -13,199 187,41 492,143 492,143l211 106c0,0 44,-156 109,-296 -53,-15 -107,-69 -270,-40 -399,72 -352,8 -392,-37 -94,-106 261,-162 261,-162z"/>
    <path class="fil5" d="M1026 4292l-48 284 -117 -125 -18 177 899 341 51 -140 -173 48 -180 -73 -6 -204 -98 150c0,0 -48,-385 -55,-360 -6,24 -88,266 -88,266 0,0 -27,-319 -30,-296 -3,24 -83,222 -83,222l-54 -290z"/>
    <path class="fil2" d="M6910 3388c-70,-105 -188,-140 -264,-76 -75,64 -79,201 -8,307 70,106 188,140 263,77 75,-64 79,-202 9,-308z"/>
    <path class="fil1" d="M6931 3524c-16,-71 -70,-117 -121,-104 -51,14 -80,82 -65,153 16,70 70,117 121,103 51,-13 80,-82 65,-152z"/>
    <path class="fil3" d="M6803 3499c16,-40 -26,-94 -95,-123 -68,-28 -137,-19 -153,20 -16,39 26,94 95,122 68,29 137,20 153,-19z"/>
    <path class="fil3" d="M4897 3732c16,-51 -34,-113 -112,-138 -79,-25 -155,-3 -171,49 -17,52 34,113 112,138 78,25 155,3 171,-49z"/>
    <path class="fil3" d="M7855 3740c0,0 49,-480 179,-605 130,-124 284,-119 354,-141 131,-40 250,-61 234,36 -15,96 -193,355 -376,949 -14,47 -71,-72 -191,-58 -119,15 -200,-181 -200,-181z"/>
    <path class="fil1" d="M7853 3772c0,0 -118,103 -93,-33 32,-172 -61,-408 125,-646 131,-167 536,-206 608,-201 88,7 255,12 226,105 -29,94 -207,297 -477,963 -18,46 72,-560 331,-878 48,-59 -15,-59 -135,-61 -120,-3 -289,45 -403,143 -151,131 -182,608 -182,608z"/>
    <path class="fil1" d="M7246 3840c0,0 548,-177 671,-170 287,18 455,105 527,163 64,51 112,73 104,219 -8,146 -167,323 -167,323 0,0 57,36 46,158 -12,127 -126,191 -170,188 -34,-3 38,60 49,138 12,78 -34,107 -63,146 -29,39 -166,73 -225,90 -161,48 -526,19 -646,-37 -162,-76 -156,-202 -118,-254 39,-52 -174,-68 -183,-219 -14,-215 119,-228 119,-228 0,0 -200,-49 -200,-203 0,-223 256,-314 256,-314z"/>
    <path class="fil3" d="M7322 3942c0,0 485,-147 590,-144 105,3 277,33 381,95 67,40 88,46 81,170 -4,70 -39,171 -91,203 -116,71 -138,59 -138,59 0,0 118,18 126,29 13,18 29,54 23,119 -9,107 -106,162 -144,160 -29,-3 -106,53 -46,73 76,24 55,190 30,223 -24,33 -93,60 -143,75 -137,41 -474,17 -559,-55 -85,-73 -126,-201 -92,-198 112,10 328,-84 315,-104 -6,-9 -324,29 -335,26 -131,-37 -147,-141 -141,-173 7,-32 45,-100 86,-112 21,-7 772,-156 772,-156 0,0 -829,35 -842,28 -36,-20 -77,-15 -72,-112 5,-131 199,-206 199,-206z"/>
    <path class="fil5" d="M7269 4668c-17,-12 -78,-68 -90,-124 -20,-93 30,-128 63,-145 94,-48 515,-84 465,-82 -106,6 -571,104 -363,336 42,27 -65,21 -75,15z"/>
    <path class="fil5" d="M7185 4025c-16,12 -48,50 -60,105 -21,93 23,100 56,116 94,49 761,-17 711,-20 -106,-5 -817,-1 -609,-233 43,-27 -87,25 -98,32z"/>
    <path class="fil5" d="M8584 3050c-44,-74 -511,-10 -592,153 -71,142 -97,272 -97,272l-40 195c0,0 292,-3 420,68 19,-48 -222,-70 -238,-227 -38,-382 183,-420 238,-435 144,-41 340,27 309,-26z"/>
    <path class="fil5" d="M7634 4692c-391,180 30,318 164,273 20,-6 327,-19 327,-19 0,0 -70,47 -179,68 -98,19 -261,9 -371,-13 -71,-14 -200,-61 -227,-167 -15,-60 -24,-61 -8,-83 4,-6 80,-1 144,-22 137,-46 184,-53 150,-37z"/>
    <path class="fil5" d="M5263 5282c0,0 303,319 462,303 160,-16 351,-287 351,-287 0,0 -309,-141 -379,102 -27,93 -434,-118 -434,-118z"/>
   </g>
  </g>
 </g>
</svg>
