<?xml version="1.0" encoding="UTF-8"?>
<!DOCTYPE svg PUBLIC "-//W3C//DTD SVG 1.1//EN" "http://www.w3.org/Graphics/SVG/1.1/DTD/svg11.dtd">
<!-- Creator: CorelDRAW X7 -->
<svg xmlns="http://www.w3.org/2000/svg" xml:space="preserve" width="6.2478mm" height="6.2478mm" version="1.1" style="shape-rendering:geometricPrecision; text-rendering:geometricPrecision; image-rendering:optimizeQuality; fill-rule:evenodd; clip-rule:evenodd"
viewBox="0 0 2737 2737"
 xmlns:xlink="http://www.w3.org/1999/xlink">
 <defs>
  <style type="text/css">
   <![CDATA[
    .fil1 {fill:#FEFEFE}
    .fil0 {fill:#A2D9F7}
    .fil3 {fill:#FEFEFE;fill-rule:nonzero}
    .fil2 {fill:url(#id0)}
   ]]>
  </style>
  <linearGradient id="id0" gradientUnits="userSpaceOnUse" x1="672.745" y1="1947.22" x2="2064.37" y2="789.936">
   <stop offset="0" style="stop-opacity:1; stop-color:#00A0E3"/>
   <stop offset="1" style="stop-opacity:1; stop-color:#008DD2"/>
  </linearGradient>
 </defs>
 <g id="Слой_x0020_1">
  <metadata id="CorelCorpID_0Corel-Layer"/>
  <g id="_340909892944">
   <path class="fil0" d="M289 0l2159 0c159,0 289,130 289,290l0 2158c0,159 -130,289 -289,289l-2159 0c-159,0 -289,-130 -289,-289l0 -2158c0,-160 130,-290 289,-290z"/>
   <path class="fil1" d="M298 50l2142 0c136,0 247,112 247,248l0 2142c0,136 -111,247 -247,247l-2142 0c-136,0 -248,-111 -248,-247l0 -2142c0,-136 112,-248 248,-248z"/>
   <path class="fil2" d="M298 133l2142 0c90,0 164,74 164,165l0 2142c0,90 -74,164 -164,164l-2142 0c-91,0 -165,-74 -165,-164l0 -2142c0,-91 74,-165 165,-165z"/>
   <path class="fil1" d="M1122 2339c0,47 -38,86 -86,86 -47,0 -86,-39 -86,-86l0 -118 172 0 0 118zm664 0l0 0 0 -118 -172 0 0 118c0,47 39,86 86,86 48,0 86,-39 86,-86zm-666 -725l0 0 495 0c25,0 38,22 45,45l67 204 -718 0 63 -204c7,-24 23,-45 48,-45zm661 247l0 0c35,0 62,28 62,62l0 219c0,34 -27,62 -62,62l-827 0c-34,0 -62,-28 -62,-62l0 -219c0,-34 28,-62 62,-62l81 -249c9,-28 24,-55 55,-55l556 0c30,0 45,27 55,55l80 249zm-434 -757l0 0 43 0 0 419 -43 0 0 -419zm-168 0l0 0 43 0 -38 419 -42 0 37 -419zm-112 0l0 0 43 0 -454 1321 -42 0 453 -1321zm603 0l0 0 -42 0 453 1321 42 0 -453 -1321zm-112 0l0 0 -43 0 38 419 42 0 -37 -419zm-270 -337l0 0 81 0 80 0 0 61c2,25 8,44 31,66 43,41 100,14 131,30 67,37 61,88 61,158l-303 0 -304 0c0,-70 -6,-121 61,-158 31,-16 88,11 131,-30 23,-22 29,-41 31,-66l0 -61z"/>
   <path class="fil3" d="M417 617c-7,2 -14,3 -20,3 -5,1 -11,1 -17,1 -5,0 -11,0 -18,-1 -8,-1 -16,-2 -24,-3l102 -327c8,-1 15,-2 22,-2 7,-1 14,-1 21,-1 6,0 12,0 19,1 7,0 15,1 23,2l102 327c-18,3 -33,4 -46,4 -6,0 -12,0 -18,-1 -7,0 -13,-1 -20,-3l-18 -63c-8,2 -16,4 -24,5 -8,2 -15,2 -23,2 -7,0 -14,0 -22,-1 -7,-1 -15,-3 -22,-5l-17 62zm64 -241l-31 118c5,1 10,2 15,3 4,1 9,2 14,2 5,0 10,-1 15,-2 5,0 10,-1 16,-3l-29 -118zm281 320c0,-6 0,-11 0,-13 0,-3 1,-5 1,-7 1,-15 6,-31 13,-47l151 25c0,11 -1,23 -3,34 -2,11 -5,22 -9,34l-153 -26zm-126 -241c0,-24 3,-47 9,-68 5,-21 14,-39 26,-54 11,-15 26,-27 45,-36 18,-9 39,-13 64,-13 25,0 47,4 65,13 18,9 33,21 44,36 12,15 21,33 26,54 6,21 9,44 9,68 0,24 -3,47 -9,68 -5,20 -14,38 -26,53 -11,15 -26,27 -44,35 -18,9 -40,13 -65,13 -25,0 -46,-4 -64,-13 -19,-8 -34,-20 -45,-35 -12,-15 -21,-33 -26,-53 -6,-21 -9,-44 -9,-68zm203 0c0,-66 -20,-100 -58,-100 -40,0 -60,34 -60,100 0,33 5,58 15,74 9,17 24,25 44,25 39,0 59,-33 59,-99zm255 168c-25,0 -45,-3 -62,-10 -16,-6 -29,-16 -38,-29 -10,-12 -16,-28 -20,-46 -4,-18 -6,-38 -6,-60l0 -187c9,-2 17,-3 23,-3 6,0 13,-1 18,-1 6,0 11,1 17,1 7,0 14,1 23,3l0 177c0,15 1,28 2,39 1,10 3,19 7,26 3,7 7,11 13,14 6,3 13,5 23,5 9,0 17,-2 23,-5 6,-3 11,-7 14,-14 3,-7 5,-16 6,-26 1,-11 2,-24 2,-39l0 -177c9,-2 17,-3 23,-3 6,0 12,-1 17,-1 5,0 11,1 18,1 6,0 14,1 23,3l0 187c0,22 -2,42 -6,60 -4,18 -10,34 -20,46 -9,13 -22,23 -39,29 -16,7 -36,10 -61,10zm219 -6c-7,2 -13,3 -19,3 -6,1 -12,1 -17,1 -6,0 -12,0 -19,-1 -7,-1 -15,-2 -24,-3l102 -327c8,-1 16,-2 23,-2 6,-1 13,-1 20,-1 6,0 12,0 19,1 7,0 15,1 24,2l101 327c-17,3 -33,4 -46,4 -6,0 -12,0 -18,-1 -6,0 -13,-1 -20,-3l-17 -63c-9,2 -17,4 -25,5 -7,2 -15,2 -23,2 -7,0 -14,0 -21,-1 -8,-1 -15,-3 -23,-5l-17 62zm64 -241l-31 118c6,1 10,2 15,3 5,1 9,2 14,2 5,0 10,-1 16,-2 5,0 10,-1 15,-3l-29 -118zm407 146c0,20 -4,37 -11,50 -7,13 -17,24 -30,31 -13,8 -28,13 -46,16 -18,3 -37,5 -57,5 -17,0 -32,-1 -45,-2 -13,-1 -27,-3 -42,-5l0 -326c11,-2 24,-4 38,-5 13,-1 29,-2 48,-2 17,0 33,2 48,4 15,3 29,8 40,15 11,7 20,16 27,28 6,11 9,25 9,43 0,14 -3,27 -9,39 -7,12 -15,21 -24,27 7,3 13,6 20,11 7,4 12,10 17,16 5,7 9,15 12,24 4,9 5,19 5,31zm-152 -42l0 77c2,0 5,1 8,1 3,0 7,0 12,0 6,0 12,-1 18,-2 6,-1 11,-3 16,-6 5,-3 9,-7 12,-12 3,-5 4,-11 4,-19 0,-14 -5,-25 -14,-30 -10,-6 -22,-9 -37,-9l-19 0zm0 -65l13 0c13,0 23,-2 30,-8 8,-5 11,-14 11,-27 0,-7 -1,-12 -4,-16 -2,-5 -6,-8 -10,-10 -3,-3 -8,-5 -13,-5 -5,-1 -9,-2 -14,-2 -2,0 -4,0 -7,0 -2,0 -4,0 -6,1l0 67zm185 40c0,-24 3,-47 8,-68 6,-21 15,-39 27,-54 11,-15 26,-27 44,-36 18,-9 40,-13 65,-13 25,0 47,4 65,13 18,9 32,21 44,36 12,15 21,33 26,54 6,21 9,44 9,68 0,24 -3,47 -9,68 -5,20 -14,38 -26,53 -12,15 -26,27 -44,35 -18,9 -40,13 -65,13 -25,0 -47,-4 -65,-13 -18,-8 -33,-20 -44,-35 -12,-15 -21,-33 -27,-53 -5,-21 -8,-44 -8,-68zm203 0c0,-66 -20,-100 -58,-100 -40,0 -60,34 -60,100 0,33 5,58 14,74 10,17 25,25 45,25 39,0 59,-33 59,-99zm108 -164c7,-2 15,-3 23,-3 7,-1 15,-1 23,-1 5,0 12,0 20,1 8,1 15,2 19,3l44 158 44 -158c5,-2 12,-3 20,-3 8,-1 15,-1 20,-1 8,0 16,0 23,1 7,0 15,1 23,3l-54 156 66 170c-15,3 -31,4 -46,4 -5,0 -12,0 -20,-1 -8,-1 -15,-2 -20,-3l-56 -163 -56 163c-5,1 -11,2 -20,3 -8,1 -14,1 -20,1 -15,0 -30,-1 -46,-4l66 -170 -53 -156z"/>
  </g>
 </g>
</svg>
