<?xml version="1.0" encoding="UTF-8"?>
<!DOCTYPE svg PUBLIC "-//W3C//DTD SVG 1.1//EN" "http://www.w3.org/Graphics/SVG/1.1/DTD/svg11.dtd">
<!-- Creator: CorelDRAW X7 -->
<svg xmlns="http://www.w3.org/2000/svg" xml:space="preserve" width="20.4432mm" height="6.4974mm" version="1.1" style="shape-rendering:geometricPrecision; text-rendering:geometricPrecision; image-rendering:optimizeQuality; fill-rule:evenodd; clip-rule:evenodd"
viewBox="0 0 26894 8548"
 xmlns:xlink="http://www.w3.org/1999/xlink">
 <defs>
  <style type="text/css">
   <![CDATA[
    .str0 {stroke:#0A5B9F;stroke-width:328.887;stroke-linecap:round;stroke-linejoin:round}
    .fil2 {fill:#FFED00}
    .fil1 {fill:#0A5B9F;fill-rule:nonzero}
    .fil0 {fill:url(#id0)}
   ]]>
  </style>
  <radialGradient id="id0" gradientUnits="userSpaceOnUse" gradientTransform="matrix(0.999994 -0 -0 0.634061 0 1564)" cx="6645.62" cy="4274.08" r="118031" fx="6645.62" fy="4274.08">
   <stop offset="0" style="stop-opacity:1; stop-color:#6395C4"/>
   <stop offset="0.278431" style="stop-opacity:1; stop-color:#5F92C2"/>
   <stop offset="0.490196" style="stop-opacity:1; stop-color:#4A84BB"/>
   <stop offset="0.709804" style="stop-opacity:1; stop-color:#3C79B5"/>
   <stop offset="1" style="stop-opacity:1; stop-color:#0A5B9F"/>
  </radialGradient>
 </defs>
 <g id="Слой_x0020_1">
  <metadata id="CorelCorpID_0Corel-Layer"/>
  <g id="_341103790048">
   <path class="fil0 str0" d="M3247 974l905 -810 2255 211 0 1643 605 -528 1772 140 0 1096 1701 261 0 127c0,0 2395,707 2624,2122 230,1414 -1885,2293 -1885,2293 0,0 -2154,880 -4664,854 -2510,-25 -3708,-510 -3708,-510 0,0 -3300,-1019 -2587,-2969 784,-1465 2982,-1898 2982,-1898l0 -2032zm27 2328c0,0 -1862,414 -1938,1401 -77,988 1938,1529 1938,1529l0 -2930zm7200 179c0,0 1231,401 1339,1243 108,841 -1339,1314 -1339,1314l0 -2557z"/>
   <path class="fil1" d="M14213 954l1195 0 0 1504 -305 0 0 -1250 -586 0 0 1250 -304 0 0 -1504zm1495 414l269 0 0 160c35,-55 82,-99 141,-133 60,-33 126,-50 199,-50 126,0 233,50 322,149 88,99 132,238 132,415 0,182 -44,324 -133,425 -89,101 -197,152 -324,152 -60,0 -115,-12 -164,-36 -48,-24 -100,-65 -154,-123l0 545 -288 0 0 -1504zm284 528c0,123 24,214 72,273 49,58 108,88 177,88 67,0 123,-27 167,-81 45,-54 67,-142 67,-265 0,-115 -23,-200 -69,-256 -45,-56 -102,-83 -170,-83 -70,0 -128,27 -175,82 -46,54 -69,135 -69,242zm940 4c0,-96 24,-189 71,-278 47,-90 114,-159 201,-206 86,-47 183,-71 289,-71 165,0 300,53 405,161 106,107 158,242 158,406 0,165 -53,302 -159,411 -106,108 -240,163 -402,163 -99,0 -195,-23 -285,-68 -91,-46 -160,-112 -207,-199 -47,-87 -71,-194 -71,-319zm297 15c0,108 25,191 76,249 52,58 115,86 190,86 75,0 138,-28 189,-86 51,-58 76,-141 76,-251 0,-107 -25,-189 -76,-246 -51,-58 -114,-87 -189,-87 -75,0 -138,29 -190,87 -51,57 -76,140 -76,248zm1035 -547l359 0 268 760 272 -760 357 0 0 1090 -246 0 0 -717 -264 717 -248 0 -253 -717 0 717 -245 0 0 -1090zm-4051 1933l283 0 0 1001 610 -1001 302 0 0 1504 -284 0 0 -985 -609 985 -302 0 0 -1504zm1491 414l288 0 0 399 416 0 0 -399 287 0 0 1090 -287 0 0 -458 -416 0 0 458 -288 0 0 -1090zm1733 1090l0 -464c-38,3 -64,11 -78,25 -15,14 -41,55 -78,124l-137 315 -310 0 154 -300c78,-150 159,-236 243,-258 -63,-24 -111,-86 -144,-187 -26,-75 -48,-119 -69,-134 -21,-15 -70,-22 -146,-22l0 -190c57,-4 96,-5 119,-5 63,0 117,14 162,42 46,28 88,98 128,210 30,87 55,142 73,165 18,23 46,35 83,36l0 -447 288 0 0 447c36,0 64,-12 83,-36 19,-23 43,-79 73,-165 40,-111 81,-180 125,-209 44,-29 100,-43 169,-43 20,0 58,1 115,5l0 190c-76,0 -124,7 -145,22 -21,15 -45,59 -70,134 -33,101 -81,163 -144,187 84,22 165,108 243,258l154 300 -310 0 -136 -315c-25,-56 -48,-94 -69,-114 -20,-21 -50,-32 -88,-35l0 464 -288 0zm1029 -1090l278 0 0 685 443 -685 283 0 0 1090 -277 0 0 -695 -449 695 -278 0 0 -1090zm1287 0l288 0 0 399 416 0 0 -399 288 0 0 1090 -288 0 0 -458 -416 0 0 458 -288 0 0 -1090zm1273 0l278 0 0 685 443 -685 284 0 0 1090 -278 0 0 -695 -449 695 -278 0 0 -1090zm1292 0l269 0 0 160c35,-55 81,-99 141,-133 60,-33 126,-50 198,-50 127,0 234,50 322,149 88,99 133,238 133,415 0,182 -45,324 -134,425 -89,101 -197,152 -323,152 -60,0 -115,-12 -164,-37 -49,-23 -101,-64 -155,-122l0 545 -287 0 0 -1504zm283 528c0,123 24,214 73,273 48,58 108,87 177,87 67,0 122,-26 167,-80 44,-54 66,-142 66,-265 0,-115 -22,-200 -68,-256 -46,-56 -102,-83 -170,-83 -70,0 -129,27 -175,82 -47,54 -70,135 -70,242zm1000 -528l277 0 0 685 443 -685 284 0 0 1090 -277 0 0 -695 -450 695 -277 0 0 -1090zm1287 0l288 0 0 399 416 0 0 -399 287 0 0 1090 -287 0 0 -458 -416 0 0 458 -288 0 0 -1090zm1269 0l737 0 0 233 -450 0 0 857 -287 0 0 -1090zm-11934 1933l1019 0 0 254 -714 0 0 1250 -305 0 0 -1504zm1086 414l269 0 0 160c35,-55 81,-99 141,-133 59,-34 126,-50 198,-50 126,0 234,49 322,149 88,99 133,238 133,415 0,182 -45,324 -134,425 -89,101 -197,151 -323,151 -61,0 -115,-12 -164,-36 -49,-24 -101,-64 -155,-123l0 546 -287 0 0 -1504zm283 528c0,123 24,214 73,273 48,58 107,87 177,87 67,0 122,-27 167,-80 44,-54 66,-143 66,-266 0,-114 -22,-199 -68,-255 -46,-56 -103,-83 -170,-83 -71,0 -129,27 -175,82 -47,54 -70,135 -70,242zm842 -528l306 0 262 773 255 -773 299 0 -385 1049 -69 189c-26,64 -50,112 -73,146 -23,33 -49,60 -79,81 -30,21 -67,37 -110,49 -44,11 -93,17 -148,17 -55,0 -110,-6 -164,-17l-25 -225c45,9 86,13 123,13 67,0 117,-19 149,-59 32,-39 57,-90 74,-151l-415 -1092zm1294 0l969 0 0 1090 -288 0 0 -857 -393 0 0 857 -288 0 0 -1090zm1269 0l969 0 0 1090 -288 0 0 -857 -393 0 0 857 -288 0 0 -1090z"/>
   <polygon class="fil2" points="4625,245 4625,6991 4337,7022 4337,218 "/>
   <polygon class="fil2" points="9482,2869 9482,6464 9327,6481 9327,2846 "/>
   <polygon class="fil2" points="5028,282 5028,6947 4739,6978 4739,255 "/>
   <polygon class="fil2" points="9698,2902 9698,6442 9543,6458 9543,2879 "/>
   <polygon class="fil2" points="5431,320 5431,6904 5142,6935 5142,293 "/>
   <polygon class="fil2" points="9914,2936 9914,6419 9759,6435 9759,2912 "/>
   <polygon class="fil2" points="5834,357 5833,6861 5544,6892 5543,330 "/>
   <polygon class="fil2" points="10130,2969 10129,6396 9974,6412 9974,2945 "/>
   <polygon class="fil2" points="6111,383 6111,6831 5900,6854 5900,363 "/>
   <polygon class="fil2" points="10278,2992 10278,6380 10165,6392 10165,2974 "/>
   <polygon class="fil2" points="6389,411 6389,6801 6178,6824 6178,390 "/>
   <polygon class="fil2" points="7377,1554 7377,6694 7153,6718 7153,1537 "/>
   <polygon class="fil2" points="7690,1579 7690,6661 7465,6685 7465,1561 "/>
   <polygon class="fil2" points="8002,1604 8002,6628 7778,6652 7778,1586 "/>
   <polygon class="fil2" points="8317,1629 8315,6595 8091,6619 8090,1610 "/>
   <polygon class="fil2" points="8532,1645 8531,6572 8367,6590 8368,1633 "/>
   <polygon class="fil2" points="8747,1662 8747,6549 8583,6567 8583,1650 "/>
   <polygon class="fil2" points="10427,3015 10427,6364 10314,6376 10314,2997 "/>
  </g>
 </g>
</svg>
