<?xml version="1.0" encoding="UTF-8"?>
<!DOCTYPE svg PUBLIC "-//W3C//DTD SVG 1.1//EN" "http://www.w3.org/Graphics/SVG/1.1/DTD/svg11.dtd">
<!-- Creator: CorelDRAW X7 -->
<svg xmlns="http://www.w3.org/2000/svg" xml:space="preserve" width="44.8315mm" height="6.2478mm" version="1.1" style="shape-rendering:geometricPrecision; text-rendering:geometricPrecision; image-rendering:optimizeQuality; fill-rule:evenodd; clip-rule:evenodd"
viewBox="0 0 138460 19296"
 xmlns:xlink="http://www.w3.org/1999/xlink">
 <defs>
  <style type="text/css">
   <![CDATA[
    .fil0 {fill:#008E92}
    .fil2 {fill:#E95229;fill-rule:nonzero}
    .fil1 {fill:#008E92;fill-rule:nonzero}
   ]]>
  </style>
 </defs>
 <g id="Слой_x0020_1">
  <metadata id="CorelCorpID_0Corel-Layer"/>
  <g id="_340902687776">
   <polygon class="fil0" points="32922,14113 36690,5400 37782,5400 37782,15710 36739,15710 36739,8031 33416,15710 32411,15710 29088,8031 29088,15710 28046,15710 28046,5400 29137,5400 "/>
   <polygon class="fil1" points="32922,14255 36728,5457 37725,5457 37725,15654 36796,15654 36796,7759 33379,15654 32448,15654 29032,7759 29032,15654 28102,15654 28102,5457 29100,5457 "/>
   <path class="fil0" d="M60671 14377l822 0 0 4919 -1043 0 0 -3806 -8003 0 0 3806 -1040 0 0 -4919 865 0c12,-10 24,-18 34,-22 1701,-1663 2190,-4037 2190,-6336 0,-547 -27,-1095 -93,-1638 -36,-307 -90,-611 -155,-912l-15 -69 6438 0 0 8977zm-7035 82l5992 0 0 -8029 -4144 0c54,528 75,1059 75,1589 0,2289 -458,4622 -1923,6440z"/>
   <path class="fil1" d="M60615 14433l822 0 0 4807 -930 0 0 -3806 -8116 0 0 3806 -927 0 0 -4807 830 0c16,-15 32,-27 48,-35 1472,-1440 2210,-3566 2210,-6379 0,-573 -32,-1122 -92,-1645 -40,-313 -93,-619 -157,-917l6312 0 0 8976zm-7098 82l6167 0 0 -8141 -4262 0c56,523 80,1072 80,1645 0,2746 -662,4908 -1985,6496z"/>
   <polygon class="fil0" points="67194,8574 71229,15711 69949,15711 66506,9419 64493,11646 64493,15711 63442,15711 63442,5400 64493,5400 64493,9980 68416,5400 69760,5400 "/>
   <polygon class="fil1" points="69641,5457 67126,8569 71133,15654 69982,15654 66517,9322 64436,11625 64436,15654 63498,15654 63498,5457 64436,5457 64436,10132 68442,5457 "/>
   <path class="fil0" d="M82182 13734c-152,197 -314,388 -489,565 -1122,1136 -2487,1697 -4083,1697 -1588,0 -2943,-566 -4066,-1689 -1123,-1123 -1688,-2478 -1688,-4066 0,-1593 560,-2958 1689,-4082 1124,-1120 2479,-1685 4065,-1685 1593,0 2956,563 4084,1689 172,180 334,368 488,564l0 -1335 1051 0 0 10311 -1051 0 0 -1969zm0 -2578l0 -1833c-173,-927 -608,-1712 -1275,-2378 -912,-910 -2008,-1367 -3297,-1367 -1288,0 -2382,453 -3291,1366 -909,912 -1364,2010 -1364,3297 0,1285 453,2378 1363,3284 912,908 2005,1360 3292,1360 1290,0 2384,-461 3297,-1372 662,-659 1101,-1446 1275,-2357z"/>
   <path class="fil1" d="M83176 15646l-938 0 0 -2081c-180,245 -377,477 -585,694 -1115,1123 -2462,1681 -4043,1681 -1567,0 -2907,-558 -4025,-1673 -1115,-1119 -1672,-2458 -1672,-4026 0,-1580 557,-2928 1672,-4042 1118,-1110 2458,-1668 4025,-1668 1581,0 2928,558 4043,1672 208,216 405,449 585,690l0 -1444 938 0 0 10197zm-938 -4487l0 -1844c-172,-919 -602,-1720 -1291,-2410 -926,-923 -2037,-1384 -3337,-1384 -1303,0 -2409,461 -3331,1384 -920,926 -1380,2037 -1380,3336 0,1304 460,2410 1380,3324 922,919 2028,1376 3331,1376 1300,0 2411,-462 3337,-1388 689,-685 1119,-1487 1291,-2394z"/>
   <polygon class="fil0" points="96820,13922 103256,5400 104339,5400 104339,15711 103300,15711 103300,7105 96820,15661 96820,15711 95781,15711 95781,5400 96820,5400 "/>
   <polygon class="fil1" points="95838,5457 96763,5457 96763,14091 103284,5457 104283,5457 104283,15654 103357,15654 103357,6937 96763,15642 96763,15654 95838,15654 "/>
   <polygon class="fil0" points="114059,10658 107370,10658 107370,15710 106327,15710 106327,5400 107370,5400 107370,9607 114059,9607 114059,5400 115102,5400 115102,15710 114059,15710 "/>
   <polygon class="fil1" points="115046,15654 114115,15654 114115,10602 107314,10602 107314,15654 106384,15654 106384,5457 107314,5457 107314,9663 114115,9663 114115,5457 115046,5457 "/>
   <polygon class="fil0" points="134254,6452 134254,15710 133211,15710 133211,6452 129004,6452 129004,5400 138460,5400 138460,6452 "/>
   <polygon class="fil1" points="134198,6395 134198,15654 133267,15654 133267,6395 129061,6395 129061,5457 138404,5457 138404,6395 "/>
   <path class="fil0" d="M87317 6427l0 730 2582 0c1112,0 2048,428 2794,1247 759,835 1100,1842 1100,2966 0,1156 -318,2220 -1100,3083 -745,822 -1681,1251 -2794,1251l-3600 0 0 -56c2,-3395 0,-6790 0,-10185l0 -57 6475 0 0 1021 -5457 0zm0 1750l0 6510 2501 0c849,0 1537,-359 2094,-992 581,-661 875,-1433 875,-2313 0,-848 -315,-1583 -874,-2216 -559,-631 -1247,-989 -2095,-989l-2501 0z"/>
   <path class="fil1" d="M86356 5463l6361 0 0 908 -5457 0 0 842 2639 0c1110,0 2026,432 2752,1229 723,795 1085,1773 1085,2928 0,1230 -362,2247 -1085,3046 -726,800 -1643,1232 -2752,1232l-3544 0c3,-3395 1,-6790 1,-10185zm904 2658l0 6623 2558 0c831,0 1544,-339 2137,-1012 593,-675 889,-1461 889,-2350 0,-831 -298,-1584 -889,-2253 -594,-672 -1307,-1008 -2137,-1008l-2558 0z"/>
   <path class="fil1" d="M45900 14416c-1446,228 -2754,-110 -3672,-842l7086 -6743c-1192,-1520 -3156,-2375 -5207,-2051 -2995,473 -5049,3262 -4581,6226 467,2966 3148,5007 6541,4472 1830,-289 3245,-1283 4065,-2985l-988 -509c-580,1301 -1784,2202 -3244,2432zm-5253 -3586c-375,-2375 1223,-4608 3628,-4988 1298,-204 2554,187 3478,963l-6286 5967c-420,-553 -703,-1205 -820,-1942z"/>
   <path class="fil1" d="M123305 14416c-1446,228 -2754,-110 -3672,-842l7086 -6743c-1192,-1520 -3156,-2375 -5207,-2051 -2995,473 -5049,3262 -4581,6226 467,2966 3148,5007 6541,4472 1830,-289 3245,-1283 4065,-2985l-988 -509c-580,1301 -1784,2202 -3244,2432zm-5253 -3586c-375,-2375 1223,-4608 3628,-4988 1298,-204 2554,187 3478,963l-6286 5967c-420,-553 -703,-1205 -820,-1942z"/>
   <polygon class="fil2" points="19210,7019 12191,7019 12191,0 7019,0 7019,7019 0,7019 0,12191 7019,12191 7019,19210 12191,19210 12191,12191 19210,12191 "/>
   <path class="fil1" d="M12193 0l0 5734c2138,0 3871,1733 3871,3871 0,2138 -1733,3871 -3871,3871l0 5734c5304,0 9604,-4300 9604,-9605 0,-5305 -4300,-9605 -9604,-9605z"/>
  </g>
 </g>
</svg>
