<?xml version="1.0" encoding="UTF-8"?>
<!DOCTYPE svg PUBLIC "-//W3C//DTD SVG 1.1//EN" "http://www.w3.org/Graphics/SVG/1.1/DTD/svg11.dtd">
<!-- Creator: CorelDRAW X7 -->
<svg xmlns="http://www.w3.org/2000/svg" xml:space="preserve" width="75.5477mm" height="30.1772mm" version="1.1" style="shape-rendering:geometricPrecision; text-rendering:geometricPrecision; image-rendering:optimizeQuality; fill-rule:evenodd; clip-rule:evenodd"
viewBox="0 0 127854 29209"
 xmlns:xlink="http://www.w3.org/1999/xlink">
 <defs>
  <style type="text/css">
   <![CDATA[
    .fil2 {fill:#2B2A29}
    .fil1 {fill:#E1B6CF}
    .fil0 {fill:#2B2A29;fill-rule:nonzero}
   ]]>
  </style>
 </defs>
 <g id="Слой_x0020_1">
  <metadata id="CorelCorpID_0Corel-Layer"/>
  <g id="_771232905648">
   <g>
    <g>
     <path class="fil0" d="M55 16696l0 0 2 -2 -2 2zm-9 -1152c9,-323 29,-639 61,-949l947 -547c-2,54 -4,107 -5,161l12516 -7226c232,110 459,231 680,363l-14199 8198zm21690 7419l315 574 -2698 1557c-201,-200 -400,-389 -595,-569l1497 -865c34,33 68,66 101,99l1380 -796zm-863 -1573l315 574 -3224 1861c-221,-188 -436,-367 -644,-540l1537 -888 111 94 1905 -1101zm-864 -1570c20,37 40,73 61,108l255 465 -9306 5373c-499,70 -1020,106 -1562,106l-200 -2 2418 -1396c117,-13 233,-27 347,-43l7987 -4611zm-617 -1714c55,226 115,444 181,652l-12037 6948c-381,-68 -751,-159 -1111,-270l1910 -1103c68,13 137,26 205,39l10852 -6266zm-326 -1881c27,236 59,471 94,701l-13928 8041c-277,-134 -546,-282 -808,-446l1665 -961c49,24 98,48 147,72l12830 -7407zm306 -2246c-65,275 -122,561 -172,855l-15670 9047c-213,-174 -419,-359 -620,-555l1512 -873c37,31 74,62 111,93l14839 -8567zm1155 -2737l-457 832c-50,86 -98,176 -144,270l-17713 10227c-171,-206 -332,-417 -482,-634l1398 -807c29,35 58,71 87,106l17311 -9994zm1663 -3030l-607 1106 -20377 11765c-125,-232 -240,-470 -345,-714l1285 -742c21,41 42,81 64,121l19980 -11536zm-20828 2432c313,-535 682,-1038 1107,-1508 -35,57 -70,115 -104,173l5239 -3025c504,-87 1027,-137 1569,-150l-7811 4510zm-1045 2674c85,-376 189,-741 314,-1095l732 -422c-15,60 -29,121 -43,182l9900 -5716c327,53 645,122 953,206l-11856 6845zm22854 -7742l-457 832c-49,85 -97,176 -143,270l-1419 819 -20641 11917c-80,-258 -149,-522 -209,-792l1172 -676c13,44 26,89 40,133l1556 -898 18728 -10813 1373 -792zm294 -2239c-140,323 -329,733 -430,1004l-7254 4188 -3230 1865 -12206 7047 -220 126c-27,-228 -47,-459 -61,-695l-64 -145 55 -31 2 -2 1055 -609c5,49 11,99 17,147l94 -54 0 0 22242 -12841z"/>
    </g>
    <path class="fil1" d="M14311 12513c275,475 432,1026 432,1614 0,1782 -1445,3226 -3227,3226 -1194,0 -2236,-648 -2794,-1613l5589 -3227z"/>
   </g>
   <g id="_771232906416">
    <path class="fil0" d="M41687 19251l-3900 0 0 -13519c0,-1021 391,-1946 1173,-2775 829,-734 1738,-1101 2727,-1101l3877 0c1053,0 1954,371 2703,1113 750,741 1125,1663 1125,2763l0 13519 -3828 0 0 -7728 -3877 0 0 7728zm0 -13503l0 3813 3877 0 0 -3813c0,-478 -192,-945 -575,-1407 -382,-332 -845,-523 -1387,-571 -479,0 -934,192 -1364,571 -367,366 -551,837 -551,1407zm25861 13503l-9714 0 0 -17395 3900 0 0 15481 5814 0 0 1914zm12509 0l-3900 0 0 -17395 7776 0c1053,0 1954,371 2704,1113 750,741 1125,1663 1125,2763l0 1891c0,1084 -375,1994 -1125,2727 -351,383 -750,674 -1196,874 -447,199 -950,299 -1508,299l-3876 0 0 7728zm0 -15481l0 5791 1914 0c542,0 1005,-184 1388,-547 383,-414 574,-877 574,-1383l0 -1883c0,-478 -191,-945 -574,-1407 -383,-332 -846,-523 -1388,-571l-1914 0zm20046 15481l-3900 0 0 -17395 3900 0 0 7705 3876 0 0 -7705 3829 0 0 17395 -3829 0 0 -7728 -3876 0 0 7728zm20047 0l-3901 0 0 -13519c0,-1021 391,-1946 1173,-2775 829,-734 1739,-1101 2728,-1101l3876 0c1053,0 1954,371 2704,1113 749,741 1124,1663 1124,2763l0 13519 -3828 0 0 -7728 -3876 0 0 7728zm0 -13503l0 3813 3876 0 0 -3813c0,-478 -192,-945 -574,-1407 -383,-332 -846,-523 -1388,-571 -479,0 -933,192 -1364,571 -367,366 -550,837 -550,1407z"/>
    <path class="fil0" d="M37787 23553l740 0c423,0 709,18 858,55 211,52 384,159 518,321 136,162 203,366 203,611 0,247 -66,451 -197,611 -131,161 -312,268 -542,324 -168,41 -482,60 -943,60l-265 0 0 1725 -372 0 0 -3707zm372 361l0 1260 628 8c254,0 440,-23 558,-70 118,-46 211,-120 278,-224 67,-103 101,-219 101,-347 0,-123 -34,-238 -101,-341 -67,-104 -157,-177 -267,-221 -110,-44 -290,-65 -541,-65l-656 0zm4358 -361l2122 0 0 361 -1750 0 0 1162 1735 0 0 361 -1735 0 0 1461 1735 0 0 362 -2107 0 0 -3707zm4432 0l376 0 0 1390 1487 -1390 499 0 -1787 1662 1926 2045 -494 0 -1631 -1731 0 1731 -376 0 0 -3707zm7724 3707l-403 0 -1231 -2870 -1252 2870 -403 0 1616 -3707 83 0 1590 3707zm3807 -3707l1730 3707 -398 0 -580 -1219 -1607 0 -575 1219 -413 0 1750 -3707 93 0zm-46 778l-638 1349 1273 0 -635 -1349zm3856 2929l514 -3707 76 0 1509 3041 1499 -3041 56 0 533 3707 -358 0 -372 -2654 -1313 2654 -98 0 -1326 -2675 -355 2675 -365 0zm6569 -3707l371 0 0 1554 1890 0 0 -1554 372 0 0 3707 -372 0 0 -1792 -1890 0 0 1792 -371 0 0 -3707zm6719 0l1730 3707 -399 0 -579 -1219 -1607 0 -576 1219 -413 0 1751 -3707 93 0zm-47 778l-638 1349 1273 0 -635 -1349zm6123 -778l-740 0c-412,0 -692,17 -838,50 -221,50 -400,158 -538,324 -139,165 -207,369 -207,611 0,201 47,379 142,531 95,153 231,268 408,347 177,78 421,118 733,119l-1335 1725 455 0 1335 -1725 213 0 0 1725 372 0 0 -3707zm-372 361l0 1260 -640 5c-249,0 -432,-23 -551,-71 -118,-47 -211,-122 -279,-225 -66,-103 -99,-219 -99,-347 0,-124 33,-237 101,-339 67,-101 156,-174 266,-218 110,-44 292,-65 547,-65l655 0zm5808 -361l377 0 0 1390 1487 -1390 499 0 -1787 1662 1926 2045 -495 0 -1630 -1731 0 1731 -377 0 0 -3707zm6487 -93c561,0 1031,187 1409,561 378,375 567,836 567,1384 0,543 -188,1003 -565,1381 -378,378 -838,567 -1381,567 -549,0 -1013,-189 -1391,-565 -377,-376 -567,-831 -567,-1365 0,-357 86,-686 259,-991 172,-304 407,-542 704,-714 297,-172 619,-258 965,-258zm17 361c-274,0 -534,71 -780,214 -246,143 -437,335 -576,577 -137,243 -206,512 -206,810 0,439 152,811 457,1114 306,304 674,455 1105,455 288,0 554,-69 798,-209 245,-139 437,-330 573,-572 137,-242 206,-510 206,-806 0,-295 -69,-561 -206,-798 -136,-238 -330,-428 -579,-571 -249,-143 -513,-214 -792,-214zm4212 3439l514 -3707 76 0 1509 3041 1499 -3041 56 0 534 3707 -359 0 -372 -2654 -1313 2654 -97 0 -1327 -2675 -355 2675 -365 0zm6569 -3707l2633 0 0 3707 -372 0 0 -3356 -1890 0 0 3356 -371 0 0 -3707zm6719 0l1730 3707 -399 0 -579 -1219 -1607 0 -575 1219 -413 0 1750 -3707 93 0zm-47 778l-637 1349 1273 0 -636 -1349zm4012 -778l371 0 0 1554 1890 0 0 -1554 372 0 0 3707 -372 0 0 -1792 -1890 0 0 1792 -371 0 0 -3707zm8123 3707l-387 0 0 -2848 -2447 2848 -83 0 0 -3707 372 0 0 2890 2462 -2890 83 0 0 3707zm4672 -3707l-740 0c-412,0 -692,17 -838,50 -221,50 -400,158 -538,324 -139,165 -207,369 -207,611 0,201 47,379 143,531 94,153 230,268 407,347 177,78 421,118 733,119l-1335 1725 455 0 1335 -1725 214 0 0 1725 371 0 0 -3707zm-371 361l0 1260 -641 5c-249,0 -432,-23 -551,-71 -118,-47 -211,-122 -279,-225 -66,-103 -99,-219 -99,-347 0,-124 33,-237 101,-339 67,-101 156,-174 266,-218 110,-44 292,-65 547,-65l656 0z"/>
   </g>
   <polygon class="fil2" points="29700,0 29700,29209 28900,29209 28900,0 "/>
  </g>
 </g>
</svg>
